<?xml version="1.0" encoding="UTF-8"?>
<svg version="1.1" xmlns="http://www.w3.org/2000/svg" width="512" height="512">
<path d="M0 0 C1.12698708 -0.00297112 2.25397417 -0.00594224 3.41511238 -0.0090034 C7.16443442 -0.01762495 10.91372428 -0.0191931 14.66305542 -0.02069092 C17.36299791 -0.02532389 20.06293759 -0.03032945 22.76287842 -0.03573608 C30.0818524 -0.04925973 37.40082085 -0.05533543 44.71980524 -0.05974674 C49.30262395 -0.06252062 53.8854406 -0.06676011 58.4682579 -0.07125092 C71.19207438 -0.08343827 83.9158892 -0.09373702 96.63971138 -0.09712601 C97.8589422 -0.09745536 97.8589422 -0.09745536 99.10280394 -0.09779136 C99.9174239 -0.09800964 100.73204385 -0.09822791 101.57134926 -0.09845281 C103.22170965 -0.09889625 104.87207004 -0.09934281 106.52243042 -0.09979248 C107.34104305 -0.10001391 108.15965568 -0.10023534 109.00307475 -0.10046348 C122.23542457 -0.10440239 135.46771902 -0.12183101 148.70004751 -0.145152 C162.33185823 -0.16898011 175.96364132 -0.18133312 189.59547317 -0.18249393 C197.23033727 -0.18340455 204.86512929 -0.18899992 212.4999733 -0.20731354 C219.0079373 -0.2228705 225.51580697 -0.2277449 232.02378608 -0.21957543 C235.3323084 -0.21572242 238.64049044 -0.21803032 241.94901276 -0.23063278 C280.79256081 -0.36975123 319.45348079 3.77644011 348.39303589 32.20684814 C349.36140069 33.18251537 350.32766696 34.16027146 351.29147339 35.14044189 C352.12420776 35.97446533 352.95694214 36.80848877 353.81491089 37.66778564 C381.48820966 66.80503026 383.77753256 107.11019833 383.67965698 145.10137939 C383.68373443 147.80339591 383.68897697 150.5053882 383.69558716 153.20739746 C383.70877386 159.71821966 383.70611517 166.22893684 383.69734924 172.73976278 C383.69051274 178.0416864 383.68968138 183.34358103 383.69292068 188.64550781 C383.69338038 189.40645292 383.69384008 190.16739802 383.69431371 190.95140207 C383.6952731 192.49830644 383.69624575 194.04521081 383.69723149 195.59211516 C383.70574124 210.02283401 383.69602116 224.45349524 383.67983039 238.88420463 C383.66643125 251.20727605 383.6687606 263.53026262 383.68258667 275.85333252 C383.69872118 290.24017794 383.70491768 304.62697316 383.69574988 319.01382637 C383.69479445 320.5543429 383.69385134 322.09485943 383.69292068 323.63537598 C383.69245786 324.39290614 383.69199503 325.15043629 383.69151818 325.93092191 C383.68895176 331.21291226 383.69324788 336.49487016 383.70035934 341.77685547 C383.70886278 348.23325717 383.70631201 354.6895498 383.69051711 361.14593935 C383.68275106 364.42616178 383.68101382 367.70617089 383.68946457 370.98639679 C383.76952458 405.2572682 381.30254492 441.72299497 358.29147339 469.14044189 C357.24539917 470.39341064 357.24539917 470.39341064 356.17819214 471.67169189 C347.11317898 482.10531272 337.36909314 490.39504027 325.29147339 497.14044189 C323.85868042 497.95835205 323.85868042 497.95835205 322.39694214 498.79278564 C301.8967467 509.81409455 277.32935511 512.30846975 254.4223175 512.27415466 C253.2902426 512.27642022 252.1581677 512.27868578 250.99178749 512.28101999 C247.23156473 512.28730567 243.47137852 512.28653413 239.71115112 512.28570557 C237.00132615 512.28815964 234.29150367 512.29207598 231.5816803 512.29588318 C225.00361056 512.30415396 218.42554979 512.30693641 211.84747528 512.30749556 C206.49370907 512.30797249 201.13994578 512.31003608 195.7861805 512.31319618 C180.56949149 512.32199362 165.3528095 512.32661708 150.13611793 512.32586571 C149.31750974 512.32582575 148.49890156 512.3257858 147.65548706 512.32574463 C146.83586607 512.32570375 146.01624508 512.32566287 145.17178709 512.32562075 C131.90312817 512.32521471 118.63449769 512.33477591 105.36584698 512.348883 C91.70465341 512.36329148 78.04347366 512.3701507 64.3822723 512.36928922 C56.72751193 512.36895875 49.07278136 512.37163937 41.41802788 512.38246727 C34.89821846 512.39163144 28.37845235 512.39369954 21.85863923 512.38695785 C18.54079143 512.38372194 15.22309325 512.38464323 11.90524292 512.3923111 C-5.65016565 512.43022751 -23.16961576 512.19443874 -40.39602661 508.39044189 C-41.1723645 508.22052734 -41.94870239 508.05061279 -42.74856567 507.87554932 C-70.59540345 501.45918798 -95.03471991 484.36283792 -110.48391724 460.16973877 C-127.65161631 431.72119119 -129.18027456 399.61566916 -129.09671021 367.17950439 C-129.10078766 364.47748788 -129.10603019 361.77549559 -129.11264038 359.07348633 C-129.12582708 352.56266413 -129.12316839 346.05194695 -129.11440246 339.54112101 C-129.10756596 334.23919739 -129.1067346 328.93730276 -129.10997391 323.63537598 C-129.11066346 322.49395832 -129.11066346 322.49395832 -129.11136694 321.32948172 C-129.11232632 319.78257735 -129.11329897 318.23567298 -129.11428471 316.68876863 C-129.12279446 302.25804978 -129.11307438 287.82738855 -129.09688361 273.39667916 C-129.08348448 261.07360774 -129.08581382 248.75062117 -129.09963989 236.42755127 C-129.1157744 222.04070585 -129.1219709 207.65391063 -129.1128031 193.26705742 C-129.11184768 191.72654089 -129.11090456 190.18602436 -129.10997391 188.64550781 C-129.10951108 187.88797765 -129.10904825 187.13044749 -129.1085714 186.34996188 C-129.10600498 181.06797153 -129.1103011 175.78601363 -129.11741257 170.50402832 C-129.125916 164.04762662 -129.12336524 157.59133399 -129.10757034 151.13494444 C-129.09980428 147.85472201 -129.09806704 144.5747129 -129.10651779 141.294487 C-129.1865778 107.02361559 -126.71959814 70.55788882 -103.70852661 43.14044189 C-103.0111438 42.30512939 -102.31376099 41.46981689 -101.59524536 40.60919189 C-92.5302322 30.17557106 -82.78614636 21.88584351 -70.70852661 15.14044189 C-69.7533313 14.59516846 -68.79813599 14.04989502 -67.81399536 13.48809814 C-47.42587552 2.52704329 -22.80108774 -0.0191332 0 0 Z " fill="#FE0000" transform="translate(128.70852661132813,-0.14044189453125)"/>
<path d="M0 0 C11.88 0 23.76 0 36 0 C36 21.78 36 43.56 36 66 C58.77 66 81.54 66 105 66 C105 76.56 105 87.12 105 98 C116.88 98 128.76 98 141 98 C141 110.21 141 122.42 141 135 C151.89 135 162.78 135 174 135 C174 157.44 174 179.88 174 203 C195.67567153 202.96038671 195.67567153 202.96038671 217.35131836 202.90991211 C220.05582642 202.90699326 222.76033493 202.90444463 225.46484375 202.90234375 C226.17210098 202.89973038 226.87935822 202.897117 227.60804749 202.89442444 C229.68134933 202.88714404 231.75456822 202.88609268 233.82788086 202.88647461 C234.99814316 202.884254 236.16840546 202.88203339 237.37413025 202.87974548 C240 203 240 203 241 204 C241.08854347 206.6660154 241.115319 209.30669399 241.09765625 211.97265625 C241.09664917 212.67934448 241.09564209 213.38603271 241.09460449 214.11413574 C241.08935745 216.76360691 241.07539629 219.41305502 241.0625 222.0625 C241.041875 227.981875 241.02125 233.90125 241 240 C218.89 240 196.78 240 174 240 C174 262.77 174 285.54 174 309 C163.11 309 152.22 309 141 309 C141 319.56 141 330.12 141 341 C129.12 341 117.24 341 105 341 C105 353.21 105 365.42 105 378 C82.23 378 59.46 378 36 378 C36 399.78 36 421.56 36 444 C24.12 444 12.24 444 0 444 C0 422.22 0 400.44 0 378 C-22.77 378 -45.54 378 -69 378 C-69 365.79 -69 353.58 -69 341 C-81.21 341 -93.42 341 -106 341 C-106 330.44 -106 319.88 -106 309 C-116.56 309 -127.12 309 -138 309 C-138 286.23 -138 263.46 -138 240 C-160.11 240 -182.22 240 -205 240 C-205 228.12 -205 216.24 -205 204 C-182.89 204 -160.78 204 -138 204 C-138 181.23 -138 158.46 -138 135 C-127.77 135 -117.54 135 -107 135 C-107 122.79 -107 110.58 -107 98 C-117.15713092 98.03959822 -117.15713092 98.03959822 -127.31420898 98.09008789 C-128.57048096 98.09258545 -129.82675293 98.09508301 -131.12109375 98.09765625 C-133.06133423 98.10551147 -133.06133423 98.10551147 -135.04077148 98.11352539 C-138 98 -138 98 -139 97 C-139.08790975 94.70848583 -139.10694038 92.41427476 -139.09765625 90.12109375 C-139.09515869 88.86482178 -139.09266113 87.6085498 -139.09008789 86.31420898 C-139.08098389 84.70489502 -139.07187988 83.09558105 -139.0625 81.4375 C-139.041875 76.343125 -139.02125 71.24875 -139 66 C-128.11 66 -117.22 66 -106 66 C-106 76.23 -106 86.46 -106 97 C-93.79 97 -81.58 97 -69 97 C-69 86.77 -69 76.54 -69 66 C-46.23 66 -23.46 66 0 66 C0 44.22 0 22.44 0 0 Z " fill="#000000" transform="translate(238,34)"/>
<path d="M0 0 C22.77 0 45.54 0 69 0 C69.020625 11.199375 69.04125 22.39875 69.0625 33.9375 C69.071604 37.47847412 69.08070801 41.01944824 69.09008789 44.66772461 C69.09460449 48.97961426 69.09460449 48.97961426 69.09544373 50.99586487 C69.09698297 52.40915745 69.10050751 53.8224487 69.10557556 55.23573303 C69.11285548 57.37194107 69.11390734 59.5080686 69.11352539 61.64428711 C69.115746 62.85007919 69.11796661 64.05587128 69.12025452 65.29820251 C69 68 69 68 68 69 C65.88318683 69.0942174 63.76319242 69.11742761 61.64428711 69.11352539 C60.63306337 69.11370619 60.63306337 69.11370619 59.60141087 69.11389065 C57.41002209 69.11314174 55.2187174 69.10551454 53.02734375 69.09765625 C51.678101 69.09618676 50.32885769 69.09516609 48.97961426 69.09460449 C43.9655675 69.0893524 38.95153293 69.0753913 33.9375 69.0625 C22.738125 69.041875 11.53875 69.02125 0 69 C0 46.23 0 23.46 0 0 Z " fill="#FBFBFB" transform="translate(169,169)"/>
<path d="M0 0 C10.56 0 21.12 0 32 0 C32 12.21 32 24.42 32 37 C21.44 37 10.88 37 0 37 C0 24.79 0 12.58 0 0 Z " fill="#010000" transform="translate(380,375)"/>
<path d="M0 0 C10.23 0 20.46 0 31 0 C31 12.21 31 24.42 31 37 C20.77 37 10.54 37 0 37 C0 24.79 0 12.58 0 0 Z " fill="#000000" transform="translate(100,375)"/>
<path d="M0 0 C10.89 0 21.78 0 33 0 C33 10.23 33 20.46 33 31 C45.21 31 57.42 31 70 31 C70 31.33 70 31.66 70 32 C57.79 32 45.58 32 33 32 C33 44.21 33 56.42 33 69 C32.67 69 32.34 69 32 69 C32 56.79 32 44.58 32 32 C21.84286908 32.03959822 21.84286908 32.03959822 11.68579102 32.09008789 C10.42951904 32.09258545 9.17324707 32.09508301 7.87890625 32.09765625 C5.93866577 32.10551147 5.93866577 32.10551147 3.95922852 32.11352539 C1 32 1 32 0 31 C-0.08790975 28.70848583 -0.10694038 26.41427476 -0.09765625 24.12109375 C-0.09515869 22.86482178 -0.09266113 21.6085498 -0.09008789 20.31420898 C-0.08098389 18.70489502 -0.07187988 17.09558105 -0.0625 15.4375 C-0.041875 10.343125 -0.02125 5.24875 0 0 Z " fill="#040000" transform="translate(99,100)"/>
<path d="M0 0 C10.56 0 21.12 0 32 0 C32 10.23 32 20.46 32 31 C21.44 31 10.88 31 0 31 C0 20.77 0 10.54 0 0 Z " fill="#000000" transform="translate(380,100)"/>
<path d="M0 0 C0.33 0 0.66 0 1 0 C1 10.23 1 20.46 1 31 C11.56 31 22.12 31 33 31 C33 31.33 33 31.66 33 32 C22.44 32 11.88 32 1 32 C1 44.21 1 56.42 1 69 C0.67 69 0.34 69 0 69 C0 56.79 0 44.58 0 32 C-11.88 32 -23.76 32 -36 32 C-36 31.67 -36 31.34 -36 31 C-24.12 31 -12.24 31 0 31 C0 20.77 0 10.54 0 0 Z " fill="#7F0000" transform="translate(379,100)"/>
<path d="M0 0 C0.33 0 0.66 0 1 0 C1 10.23 1 20.46 1 31 C13.21 31 25.42 31 38 31 C38 31.33 38 31.66 38 32 C25.79 32 13.58 32 1 32 C1 44.21 1 56.42 1 69 C0.67 69 0.34 69 0 69 C0 56.79 0 44.58 0 32 C-10.23 32 -20.46 32 -31 32 C-31 31.67 -31 31.34 -31 31 C-20.77 31 -10.54 31 0 31 C0 20.77 0 10.54 0 0 Z " fill="#7F0000" transform="translate(131,100)"/>
</svg>
