<svg version="1.1" id="Layer_1" xmlns="http://www.w3.org/2000/svg" xmlns:xlink="http://www.w3.org/1999/xlink" x="0px" y="0px"
	 width="100%" viewBox="0 0 512 512" enable-background="new 0 0 512 512" xml:space="preserve">
<path fill="#FE0000" opacity="1.000000" stroke="none" 
	d="
M288.000000,513.000000 
	C192.023300,513.000000 96.546600,513.000000 1.034948,513.000000 
	C1.034948,342.398285 1.034948,171.796539 1.034948,1.097402 
	C171.560043,1.097402 342.120178,1.097402 512.840149,1.097402 
	C512.840149,171.666550 512.840149,342.333252 512.840149,513.000000 
	C438.129852,513.000000 363.314911,513.000000 288.000000,513.000000 
M412.510101,412.863037 
	C412.875641,412.677826 412.983704,412.394409 412.981720,411.084351 
	C412.932617,399.719391 412.883514,388.354462 412.866913,376.490845 
	C412.678436,376.123047 412.394501,376.021118 411.086914,376.033325 
	C401.386658,376.077423 391.686432,376.121490 381.387146,376.098938 
	C381.200562,376.402985 381.013947,376.707001 380.632507,377.931030 
	C380.698486,389.284515 380.764465,400.637970 380.900452,412.574005 
	C381.261108,412.660461 381.621765,412.746918 382.913055,412.969727 
	C392.612915,412.918182 402.312805,412.866608 412.510101,412.863037 
M132.135391,375.988312 
	C121.710091,375.988312 111.284798,375.988312 100.728180,375.988312 
	C100.728180,388.617523 100.728180,400.662262 100.728180,412.652679 
	C111.468941,412.652679 121.853996,412.652679 132.988098,412.652679 
	C132.988098,400.187469 132.988098,388.082336 133.494781,375.974976 
	C133.656784,375.925659 133.818802,375.876343 134.911194,375.966644 
	C146.506516,375.966644 158.101822,375.966644 170.250763,375.966644 
	C170.250763,388.720764 170.250763,400.774719 170.250763,413.189697 
	C193.246750,413.189697 215.679947,413.189697 238.619965,413.189697 
	C238.619965,435.308594 238.619965,457.051910 238.619965,478.950745 
	C251.155685,478.950745 263.173492,478.950745 275.685852,478.950745 
	C275.685852,456.753754 275.685852,435.011108 275.685852,412.891022 
	C298.621490,412.891022 321.060059,412.891022 344.058228,412.891022 
	C344.058228,400.460846 344.058228,388.408386 344.058228,375.832184 
	C356.083771,375.832184 367.548279,375.832184 379.610748,375.901184 
	C379.796875,375.597931 379.983002,375.294678 380.363586,374.071075 
	C380.363586,364.144409 380.363586,354.217743 380.363586,343.812805 
	C391.404816,343.812805 401.708160,343.812805 412.509338,343.862854 
	C412.616974,343.579163 412.724579,343.295471 412.978912,342.083344 
	C412.978912,319.995056 412.978912,297.906738 412.978912,275.294891 
	C435.398071,275.294891 457.149170,275.294891 479.087830,275.294891 
	C479.087830,262.882294 479.087830,251.000916 479.087830,238.417328 
	C456.921356,238.417328 435.064423,238.417328 412.826111,238.417328 
	C412.826111,215.285568 412.826111,192.855331 412.826111,169.871078 
	C401.881866,169.871078 391.322937,169.871078 380.407867,169.871078 
	C380.407867,167.175018 380.433075,165.034897 380.403534,162.895538 
	C380.265839,152.919296 380.113007,142.943253 380.901489,132.829285 
	C391.511719,132.829285 402.121948,132.829285 412.688995,132.829285 
	C412.688995,121.567566 412.688995,111.164597 412.688995,100.737312 
	C401.777069,100.737312 391.214752,100.737312 380.033203,100.737312 
	C380.033203,111.760963 380.033203,122.397789 379.145142,132.687454 
	C367.539642,132.687454 355.934143,132.687454 343.897339,132.687454 
	C343.897339,121.590050 343.897339,111.323532 343.897339,100.467239 
	C320.917328,100.467239 298.371399,100.467239 275.344696,100.467239 
	C275.344696,78.311264 275.344696,56.751312 275.344696,35.047344 
	C262.835754,35.047344 250.824020,35.047344 238.323975,35.047344 
	C238.323975,57.058231 238.323975,78.617096 238.323975,100.596031 
	C215.413162,100.596031 192.990723,100.596031 169.943588,100.596031 
	C169.943588,111.375534 169.943588,121.742363 169.943588,132.592346 
	C166.171539,132.592346 163.025879,132.555054 159.881378,132.599411 
	C150.911713,132.725906 141.942505,132.885635 132.841476,132.095459 
	C132.841476,121.682053 132.841476,111.268654 132.841476,100.787529 
	C121.557762,100.787529 111.051689,100.787529 100.750992,100.787529 
	C100.750992,111.617172 100.750992,121.990448 100.750992,132.972870 
	C111.786926,132.972870 122.409645,132.972870 132.686859,133.860687 
	C132.686859,145.784332 132.686859,157.707993 132.686859,170.144287 
	C121.435867,170.144287 111.173866,170.144287 100.497635,170.144287 
	C100.497635,193.100906 100.497635,215.531326 100.497635,238.664001 
	C78.364632,238.664001 56.653889,238.664001 34.986069,238.664001 
	C34.986069,251.258530 34.986069,263.140961 34.986069,275.579865 
	C56.949776,275.579865 78.526253,275.579865 100.592064,275.579865 
	C100.592064,278.101471 100.585243,280.062744 100.593117,282.023956 
	C100.674706,302.345734 100.758659,322.667511 100.904755,343.569336 
	C101.263229,343.654938 101.621696,343.740509 102.910606,343.965881 
	C112.663475,343.965881 122.416351,343.965881 132.836136,343.965881 
	C132.836136,354.756927 132.836136,364.874268 132.756836,375.565826 
	C132.865005,375.725891 132.973190,375.885986 132.135391,375.988312 
z"/>
<path fill="#000000" opacity="1.000000" stroke="none" 
	d="
M379.965576,132.967148 
	C380.113007,142.943253 380.265839,152.919296 380.403534,162.895538 
	C380.433075,165.034897 380.407867,167.175018 380.407867,169.871078 
	C391.322937,169.871078 401.881866,169.871078 412.826111,169.871078 
	C412.826111,192.855331 412.826111,215.285568 412.826111,238.417328 
	C435.064423,238.417328 456.921356,238.417328 479.087830,238.417328 
	C479.087830,251.000916 479.087830,262.882294 479.087830,275.294891 
	C457.149170,275.294891 435.398071,275.294891 412.978912,275.294891 
	C412.978912,297.906738 412.978912,319.995056 412.731384,342.638977 
	C412.265198,343.353851 412.107758,343.559937 412.011505,343.812805 
	C401.708160,343.812805 391.404816,343.812805 380.363586,343.812805 
	C380.363586,354.217743 380.363586,364.144409 380.030396,374.605835 
	C379.393280,375.296082 379.165131,375.526611 379.012817,375.832184 
	C367.548279,375.832184 356.083771,375.832184 344.058228,375.832184 
	C344.058228,388.408386 344.058228,400.460846 344.058228,412.891022 
	C321.060059,412.891022 298.621490,412.891022 275.685852,412.891022 
	C275.685852,435.011108 275.685852,456.753754 275.685852,478.950745 
	C263.173492,478.950745 251.155685,478.950745 238.619965,478.950745 
	C238.619965,457.051910 238.619965,435.308594 238.619965,413.189697 
	C215.679947,413.189697 193.246750,413.189697 170.250763,413.189697 
	C170.250763,400.774719 170.250763,388.720764 170.250763,375.966644 
	C158.101822,375.966644 146.506516,375.966644 134.304993,375.697174 
	C133.457672,375.190491 133.170120,375.045135 132.836136,374.991608 
	C132.836136,364.874268 132.836136,354.756927 132.836136,343.965881 
	C122.416351,343.965881 112.663475,343.965881 102.305351,343.696777 
	C101.460373,343.190857 101.174332,343.044739 100.841957,342.989288 
	C100.758659,322.667511 100.674706,302.345734 100.593117,282.023956 
	C100.585243,280.062744 100.592064,278.101471 100.592064,275.579865 
	C78.526253,275.579865 56.949776,275.579865 34.986069,275.579865 
	C34.986069,263.140961 34.986069,251.258530 34.986069,238.664001 
	C56.653889,238.664001 78.364632,238.664001 100.497635,238.664001 
	C100.497635,215.531326 100.497635,193.100906 100.497635,170.144287 
	C111.173866,170.144287 121.435867,170.144287 132.686859,170.144287 
	C132.686859,157.707993 132.686859,145.784332 132.836578,133.423447 
	C132.986313,132.986206 132.973129,133.032303 132.973129,133.032288 
	C141.942505,132.885635 150.911713,132.725906 159.881378,132.599411 
	C163.025879,132.555054 166.171539,132.592346 169.943588,132.592346 
	C169.943588,121.742363 169.943588,111.375534 169.943588,100.596031 
	C192.990723,100.596031 215.413162,100.596031 238.323975,100.596031 
	C238.323975,78.617096 238.323975,57.058231 238.323975,35.047344 
	C250.824020,35.047344 262.835754,35.047344 275.344696,35.047344 
	C275.344696,56.751312 275.344696,78.311264 275.344696,100.467239 
	C298.371399,100.467239 320.917328,100.467239 343.897339,100.467239 
	C343.897339,111.323532 343.897339,121.590050 343.897339,132.687454 
	C355.934143,132.687454 367.539642,132.687454 379.581482,132.834930 
	C380.017822,132.982422 379.965576,132.967148 379.965576,132.967148 
M192.500031,169.991577 
	C185.074219,169.991577 177.648407,169.991577 170.284851,169.991577 
	C170.284851,193.118912 170.284851,215.653793 170.284851,238.198975 
	C193.144836,238.198975 215.701004,238.198975 238.229736,238.198975 
	C238.229736,215.326065 238.229736,192.776825 238.229736,169.991577 
	C223.111801,169.991577 208.305908,169.991577 192.500031,169.991577 
z"/>
<path fill="#0B0000" opacity="1.000000" stroke="none" 
	d="
M132.988098,375.977173 
	C132.988098,388.082336 132.988098,400.187469 132.988098,412.652679 
	C121.853996,412.652679 111.468941,412.652679 100.728180,412.652679 
	C100.728180,400.662262 100.728180,388.617523 100.728180,375.988312 
	C111.284798,375.988312 121.710091,375.988312 132.583008,376.002075 
	C133.030609,376.015869 132.988098,375.977173 132.988098,375.977173 
z"/>
<path fill="#020000" opacity="1.000000" stroke="none" 
	d="
M412.834412,376.989502 
	C412.883514,388.354462 412.932617,399.719391 412.733612,411.640137 
	C412.266693,412.355560 412.109070,412.561920 412.012665,412.815063 
	C402.312805,412.866608 392.612915,412.918182 382.305969,412.700439 
	C381.456543,412.191528 381.167084,412.044952 380.830444,411.991455 
	C380.764465,400.637970 380.698486,389.284515 380.966309,377.395264 
	C381.604919,376.703461 381.833618,376.472168 381.986176,376.165588 
	C391.686432,376.121490 401.386658,376.077423 411.645721,376.281799 
	C412.370392,376.743866 412.580353,376.896912 412.834412,376.989502 
z"/>
<path fill="#160000" opacity="1.000000" stroke="none" 
	d="
M133.009338,132.979538 
	C122.409645,132.972870 111.786926,132.972870 100.750992,132.972870 
	C100.750992,121.990448 100.750992,111.617172 100.750992,100.787529 
	C111.051689,100.787529 121.557762,100.787529 132.841476,100.787529 
	C132.841476,111.268654 132.841476,121.682053 132.907303,132.563873 
	C132.973129,133.032303 132.986313,132.986206 133.009338,132.979538 
z"/>
<path fill="#130000" opacity="1.000000" stroke="none" 
	d="
M380.025513,133.008514 
	C380.033203,122.397789 380.033203,111.760963 380.033203,100.737312 
	C391.214752,100.737312 401.777069,100.737312 412.688995,100.737312 
	C412.688995,111.164597 412.688995,121.567566 412.688995,132.829285 
	C402.121948,132.829285 391.511719,132.829285 380.433533,132.898224 
	C379.965576,132.967148 380.017822,132.982422 380.025513,133.008514 
z"/>
<path fill="#0B0000" opacity="1.000000" stroke="none" 
	d="
M100.873352,343.279297 
	C101.174332,343.044739 101.460373,343.190857 101.840134,343.626892 
	C101.621696,343.740509 101.263229,343.654938 100.873352,343.279297 
z"/>
<path fill="#0E0000" opacity="1.000000" stroke="none" 
	d="
M412.260437,343.837830 
	C412.107758,343.559937 412.265198,343.353851 412.658020,343.103180 
	C412.724579,343.295471 412.616974,343.579163 412.260437,343.837830 
z"/>
<path fill="#0B0000" opacity="1.000000" stroke="none" 
	d="
M132.796478,375.278717 
	C133.170120,375.045135 133.457672,375.190491 133.839813,375.627380 
	C133.818802,375.876343 133.656784,375.925659 133.241440,375.976074 
	C132.988098,375.977173 133.030609,376.015869 133.056000,376.030975 
	C132.973190,375.885986 132.865005,375.725891 132.796478,375.278717 
z"/>
<path fill="#0E0000" opacity="1.000000" stroke="none" 
	d="
M379.311768,375.866699 
	C379.165131,375.526611 379.393280,375.296082 379.933167,375.066040 
	C379.983002,375.294678 379.796875,375.597931 379.311768,375.866699 
z"/>
<path fill="#0E0000" opacity="1.000000" stroke="none" 
	d="
M381.686646,376.132263 
	C381.833618,376.472168 381.604919,376.703461 381.063721,376.935303 
	C381.013947,376.707001 381.200562,376.402985 381.686646,376.132263 
z"/>
<path fill="#0E0000" opacity="1.000000" stroke="none" 
	d="
M412.850647,376.740173 
	C412.580353,376.896912 412.370392,376.743866 412.109802,376.357666 
	C412.394501,376.021118 412.678436,376.123047 412.850647,376.740173 
z"/>
<path fill="#0E0000" opacity="1.000000" stroke="none" 
	d="
M380.865448,412.282715 
	C381.167084,412.044952 381.456543,412.191528 381.840637,412.632263 
	C381.621765,412.746918 381.261108,412.660461 380.865448,412.282715 
z"/>
<path fill="#0E0000" opacity="1.000000" stroke="none" 
	d="
M412.261383,412.839050 
	C412.109070,412.561920 412.266693,412.355560 412.659882,412.104370 
	C412.983704,412.394409 412.875641,412.677826 412.261383,412.839050 
z"/>
<path fill="#FBFBFB" opacity="1.000000" stroke="none" 
	d="
M193.000031,169.991577 
	C208.305908,169.991577 223.111801,169.991577 238.229736,169.991577 
	C238.229736,192.776825 238.229736,215.326065 238.229736,238.198975 
	C215.701004,238.198975 193.144836,238.198975 170.284851,238.198975 
	C170.284851,215.653793 170.284851,193.118912 170.284851,169.991577 
	C177.648407,169.991577 185.074219,169.991577 193.000031,169.991577 
z"/>
</svg>